<svg xmlns="http://www.w3.org/2000/svg" xmlns:xlink="http://www.w3.org/1999/xlink" width="500" zoomAndPan="magnify" viewBox="0 0 375 149.999998" height="200" preserveAspectRatio="xMidYMid meet" version="1.0"><defs><g/><clipPath id="886ca4e5a9"><path d="M 163.355469 10.351562 L 360 10.351562 L 360 88.820312 L 163.355469 88.820312 Z M 163.355469 10.351562 " clip-rule="nonzero"/></clipPath><clipPath id="c07afbe782"><path d="M 176.855469 10.351562 L 346.5 10.351562 C 353.957031 10.351562 360 16.394531 360 23.851562 L 360 75.320312 C 360 82.777344 353.957031 88.820312 346.5 88.820312 L 176.855469 88.820312 C 169.398438 88.820312 163.355469 82.777344 163.355469 75.320312 L 163.355469 23.851562 C 163.355469 16.394531 169.398438 10.351562 176.855469 10.351562 Z M 176.855469 10.351562 " clip-rule="nonzero"/></clipPath></defs><g clip-path="url(#886ca4e5a9)"><g clip-path="url(#c07afbe782)"><path fill="#022580" d="M 163.355469 10.351562 L 360.144531 10.351562 L 360.144531 88.820312 L 163.355469 88.820312 Z M 163.355469 10.351562 " fill-opacity="1" fill-rule="nonzero"/></g></g><g fill="#022580" fill-opacity="1"><g transform="translate(16.648812, 74.737088)"><g><path d="M 24.140625 -47.421875 C 27.398438 -47.421875 30.195312 -46.835938 32.53125 -45.671875 C 34.875 -44.503906 36.65625 -42.832031 37.875 -40.65625 C 39.09375 -38.488281 39.703125 -35.929688 39.703125 -32.984375 C 39.703125 -30.046875 39.09375 -27.492188 37.875 -25.328125 C 36.65625 -23.171875 34.875 -21.503906 32.53125 -20.328125 C 30.195312 -19.148438 27.398438 -18.5625 24.140625 -18.5625 L 12.75 -18.5625 L 12.75 0 L 7.171875 0 L 7.171875 -47.421875 Z M 23.96875 -23.328125 C 30.570312 -23.328125 33.875 -26.546875 33.875 -32.984375 C 33.875 -39.453125 30.570312 -42.6875 23.96875 -42.6875 L 12.75 -42.6875 L 12.75 -23.328125 Z M 23.96875 -23.328125 "/></g></g></g><g fill="#022580" fill-opacity="1"><g transform="translate(59.892045, 74.737088)"><g><path d="M 14.765625 0.6875 C 11.234375 0.6875 8.476562 -0.226562 6.5 -2.0625 C 4.519531 -3.90625 3.53125 -6.535156 3.53125 -9.953125 C 3.53125 -12.078125 3.96875 -13.867188 4.84375 -15.328125 C 5.71875 -16.785156 7.070312 -17.972656 8.90625 -18.890625 C 10.75 -19.816406 13.15625 -20.523438 16.125 -21.015625 C 18.71875 -21.453125 20.691406 -21.941406 22.046875 -22.484375 C 23.398438 -23.023438 24.304688 -23.628906 24.765625 -24.296875 C 25.234375 -24.960938 25.46875 -25.804688 25.46875 -26.828125 C 25.46875 -28.453125 24.910156 -29.695312 23.796875 -30.5625 C 22.679688 -31.425781 20.890625 -31.859375 18.421875 -31.859375 C 16.109375 -31.859375 14.125 -31.40625 12.46875 -30.5 C 10.8125 -29.601562 9.296875 -28.269531 7.921875 -26.5 L 7.265625 -26.5 L 4.671875 -30.171875 C 6.179688 -32.097656 8.101562 -33.628906 10.4375 -34.765625 C 12.78125 -35.898438 15.441406 -36.46875 18.421875 -36.46875 C 22.640625 -36.46875 25.75 -35.539062 27.75 -33.6875 C 29.75 -31.84375 30.75 -29.285156 30.75 -26.015625 L 30.75 -7.046875 C 30.75 -5.054688 31.59375 -4.0625 33.28125 -4.0625 C 33.84375 -4.0625 34.382812 -4.15625 34.90625 -4.34375 L 35.359375 -4.21875 L 35.96875 -0.546875 C 35.582031 -0.285156 35.070312 -0.0859375 34.4375 0.046875 C 33.800781 0.191406 33.144531 0.265625 32.46875 0.265625 C 30.5 0.265625 29.007812 -0.164062 28 -1.03125 C 27 -1.894531 26.359375 -3.171875 26.078125 -4.859375 L 25.40625 -4.9375 C 24.382812 -3.050781 23.007812 -1.640625 21.28125 -0.703125 C 19.550781 0.222656 17.378906 0.6875 14.765625 0.6875 Z M 15.921875 -3.53125 C 17.910156 -3.53125 19.632812 -3.988281 21.09375 -4.90625 C 22.5625 -5.832031 23.679688 -7.128906 24.453125 -8.796875 C 25.234375 -10.460938 25.625 -12.382812 25.625 -14.5625 L 25.625 -19.109375 L 25.015625 -19.234375 C 24.210938 -18.671875 23.238281 -18.203125 22.09375 -17.828125 C 20.945312 -17.453125 19.347656 -17.109375 17.296875 -16.796875 C 15.210938 -16.515625 13.5625 -16.082031 12.34375 -15.5 C 11.125 -14.914062 10.253906 -14.175781 9.734375 -13.28125 C 9.210938 -12.382812 8.953125 -11.273438 8.953125 -9.953125 C 8.953125 -7.859375 9.566406 -6.265625 10.796875 -5.171875 C 12.035156 -4.078125 13.742188 -3.53125 15.921875 -3.53125 Z M 15.921875 -3.53125 "/></g></g></g><g fill="#022580" fill-opacity="1"><g transform="translate(96.906695, 74.737088)"><g><path d="M 24.203125 -5.671875 L 25.890625 -1.875 C 25.046875 -1.03125 23.9375 -0.394531 22.5625 0.03125 C 21.1875 0.46875 19.703125 0.6875 18.109375 0.6875 C 11.265625 0.6875 7.84375 -2.773438 7.84375 -9.703125 L 7.84375 -31.46875 L 1.625 -31.46875 L 1.625 -35.8125 L 7.84375 -35.8125 L 7.84375 -43.375 L 13.140625 -44.25 L 13.140625 -35.8125 L 24.65625 -35.8125 L 24.65625 -31.46875 L 13.140625 -31.46875 L 13.140625 -10.21875 C 13.140625 -6.113281 14.921875 -4.0625 18.484375 -4.0625 C 20.429688 -4.0625 22.109375 -4.597656 23.515625 -5.671875 Z M 24.203125 -5.671875 "/></g></g></g><g fill="#022580" fill-opacity="1"><g transform="translate(124.156739, 74.737088)"><g><path d="M 6.234375 0 L 6.234375 -50.15625 L 11.515625 -50.15625 L 11.515625 -30.6875 L 12.203125 -30.5625 C 14.753906 -34.5 18.441406 -36.46875 23.265625 -36.46875 C 27.566406 -36.46875 30.679688 -35.367188 32.609375 -33.171875 C 34.546875 -30.972656 35.515625 -27.59375 35.515625 -23.03125 L 35.515625 0 L 30.234375 0 L 30.234375 -22.90625 C 30.234375 -25.0625 29.957031 -26.796875 29.40625 -28.109375 C 28.851562 -29.421875 28 -30.375 26.84375 -30.96875 C 25.6875 -31.5625 24.164062 -31.859375 22.28125 -31.859375 C 19.039062 -31.859375 16.4375 -30.804688 14.46875 -28.703125 C 12.5 -26.609375 11.515625 -23.160156 11.515625 -18.359375 L 11.515625 0 Z M 6.234375 0 "/></g></g></g><g fill="#ffffff" fill-opacity="1"><g transform="translate(165.365569, 74.737088)"><g><path d="M 7.984375 0 L 7.984375 -31.46875 L 1.75 -31.46875 L 1.75 -35.8125 L 7.984375 -35.8125 C 7.585938 -37.375 7.390625 -38.859375 7.390625 -40.265625 C 7.390625 -42.578125 7.878906 -44.523438 8.859375 -46.109375 C 9.847656 -47.703125 11.21875 -48.882812 12.96875 -49.65625 C 14.726562 -50.4375 16.753906 -50.828125 19.046875 -50.828125 C 22.609375 -50.828125 25.34375 -50.0625 27.25 -48.53125 L 25.203125 -44.796875 L 24.53125 -44.671875 C 23.125 -45.796875 21.296875 -46.359375 19.046875 -46.359375 C 16.941406 -46.359375 15.351562 -45.816406 14.28125 -44.734375 C 13.21875 -43.648438 12.6875 -42.113281 12.6875 -40.125 C 12.6875 -38.894531 12.878906 -37.457031 13.265625 -35.8125 L 24.65625 -35.8125 L 24.65625 -31.46875 L 13.265625 -31.46875 L 13.265625 0 Z M 7.984375 0 "/></g></g></g><g fill="#ffffff" fill-opacity="1"><g transform="translate(190.863825, 74.737088)"><g><path d="M 8.890625 -42.6875 C 7.765625 -42.6875 6.847656 -43.035156 6.140625 -43.734375 C 5.441406 -44.441406 5.09375 -45.335938 5.09375 -46.421875 C 5.09375 -47.503906 5.441406 -48.394531 6.140625 -49.09375 C 6.847656 -49.800781 7.765625 -50.15625 8.890625 -50.15625 C 10.015625 -50.15625 10.925781 -49.800781 11.625 -49.09375 C 12.332031 -48.394531 12.6875 -47.503906 12.6875 -46.421875 C 12.6875 -45.335938 12.332031 -44.441406 11.625 -43.734375 C 10.925781 -43.035156 10.015625 -42.6875 8.890625 -42.6875 Z M 6.234375 0 L 6.234375 -35.78125 L 11.515625 -35.78125 L 11.515625 0 Z M 6.234375 0 "/></g></g></g><g fill="#ffffff" fill-opacity="1"><g transform="translate(208.608802, 74.737088)"><g><path d="M 6.234375 0 L 6.234375 -35.78125 L 11.25 -35.78125 L 11.25 -30.171875 L 11.9375 -30 C 13.125 -32.101562 14.640625 -33.707031 16.484375 -34.8125 C 18.335938 -35.914062 20.597656 -36.46875 23.265625 -36.46875 C 27.566406 -36.46875 30.679688 -35.367188 32.609375 -33.171875 C 34.546875 -30.972656 35.515625 -27.59375 35.515625 -23.03125 L 35.515625 0 L 30.234375 0 L 30.234375 -22.90625 C 30.234375 -25.0625 29.957031 -26.796875 29.40625 -28.109375 C 28.851562 -29.421875 28 -30.375 26.84375 -30.96875 C 25.6875 -31.5625 24.164062 -31.859375 22.28125 -31.859375 C 19.0625 -31.859375 16.460938 -30.789062 14.484375 -28.65625 C 12.503906 -26.53125 11.515625 -23.097656 11.515625 -18.359375 L 11.515625 0 Z M 6.234375 0 "/></g></g></g><g fill="#ffffff" fill-opacity="1"><g transform="translate(249.808273, 74.737088)"><g><path d="M 18.5625 0.6875 C 15.675781 0.6875 13.132812 0 10.9375 -1.375 C 8.75 -2.75 7.03125 -4.820312 5.78125 -7.59375 C 4.539062 -10.363281 3.921875 -13.789062 3.921875 -17.875 C 3.921875 -21.957031 4.566406 -25.390625 5.859375 -28.171875 C 7.160156 -30.953125 8.953125 -33.03125 11.234375 -34.40625 C 13.515625 -35.78125 16.160156 -36.46875 19.171875 -36.46875 C 21.546875 -36.46875 23.6875 -36.015625 25.59375 -35.109375 C 27.5 -34.210938 29.132812 -32.738281 30.5 -30.6875 L 31.171875 -30.8125 L 31.171875 -50.15625 L 36.46875 -50.15625 L 36.46875 0 L 31.171875 0 L 31.171875 -5.21875 L 30.5 -5.359375 C 29.320312 -3.578125 27.734375 -2.125 25.734375 -1 C 23.734375 0.125 21.34375 0.6875 18.5625 0.6875 Z M 20.203125 -4.0625 C 23.535156 -4.0625 26.195312 -5.203125 28.1875 -7.484375 C 30.175781 -9.765625 31.171875 -13.226562 31.171875 -17.875 C 31.171875 -22.539062 30.175781 -26.015625 28.1875 -28.296875 C 26.195312 -30.578125 23.535156 -31.71875 20.203125 -31.71875 C 16.765625 -31.71875 14.113281 -30.601562 12.25 -28.375 C 10.394531 -26.15625 9.46875 -22.65625 9.46875 -17.875 C 9.46875 -8.664062 13.046875 -4.0625 20.203125 -4.0625 Z M 20.203125 -4.0625 "/></g></g></g><g fill="#ffffff" fill-opacity="1"><g transform="translate(292.532457, 74.737088)"><g><path d="M 34.09375 -16.671875 L 9.5 -16.671875 C 9.65625 -12.328125 10.695312 -9.140625 12.625 -7.109375 C 14.5625 -5.078125 17.21875 -4.0625 20.59375 -4.0625 C 23.144531 -4.0625 25.195312 -4.515625 26.75 -5.421875 C 28.3125 -6.328125 29.535156 -7.753906 30.421875 -9.703125 L 31.109375 -9.703125 L 34.546875 -7.65625 C 33.503906 -5.0625 31.84375 -3.019531 29.5625 -1.53125 C 27.28125 -0.0507812 24.289062 0.6875 20.59375 0.6875 C 17.132812 0.6875 14.160156 0.00390625 11.671875 -1.359375 C 9.191406 -2.722656 7.28125 -4.785156 5.9375 -7.546875 C 4.59375 -10.316406 3.921875 -13.757812 3.921875 -17.875 C 3.921875 -21.9375 4.628906 -25.363281 6.046875 -28.15625 C 7.460938 -30.945312 9.394531 -33.03125 11.84375 -34.40625 C 14.300781 -35.78125 17.113281 -36.46875 20.28125 -36.46875 C 24.863281 -36.46875 28.441406 -35.171875 31.015625 -32.578125 C 33.585938 -29.992188 34.882812 -26.164062 34.90625 -21.09375 C 34.90625 -19.101562 34.863281 -17.757812 34.78125 -17.0625 Z M 29.6875 -21.09375 C 29.59375 -24.894531 28.742188 -27.660156 27.140625 -29.390625 C 25.546875 -31.117188 23.257812 -31.984375 20.28125 -31.984375 C 17.144531 -31.984375 14.679688 -31.113281 12.890625 -29.375 C 11.109375 -27.632812 10.023438 -24.875 9.640625 -21.09375 Z M 29.6875 -21.09375 "/></g></g></g><g fill="#ffffff" fill-opacity="1"><g transform="translate(330.682519, 74.737088)"><g><path d="M 6.234375 0 L 6.234375 -35.78125 L 11.25 -35.78125 L 11.25 -30.171875 L 11.9375 -30 C 13.601562 -34.070312 16.738281 -36.109375 21.34375 -36.109375 C 23.789062 -36.109375 25.617188 -35.664062 26.828125 -34.78125 L 25.46875 -30.296875 L 24.8125 -30.171875 C 23.476562 -30.835938 22.007812 -31.171875 20.40625 -31.171875 C 17.550781 -31.171875 15.351562 -30.097656 13.8125 -27.953125 C 12.28125 -25.816406 11.515625 -22.347656 11.515625 -17.546875 L 11.515625 0 Z M 6.234375 0 "/></g></g></g><g fill="#000000" fill-opacity="1"><g transform="translate(48.275299, 127.733158)"><g><path d="M 12.875 -26.875 C 16.789062 -26.875 20.003906 -25.640625 22.515625 -23.171875 C 25.023438 -20.710938 26.300781 -17.46875 26.34375 -13.4375 C 26.34375 -9.4375 25.082031 -6.207031 22.5625 -3.75 C 20.050781 -1.300781 16.847656 -0.0507812 12.953125 0 L 2.84375 0 L 2.84375 -26.875 Z M 12.109375 -2.96875 C 15.472656 -2.96875 18.109375 -3.859375 20.015625 -5.640625 C 21.929688 -7.421875 22.90625 -10.019531 22.9375 -13.4375 C 22.9375 -16.726562 22 -19.285156 20.125 -21.109375 C 18.25 -22.929688 15.578125 -23.867188 12.109375 -23.921875 L 6.03125 -23.921875 L 6.03125 -2.96875 Z M 12.109375 -2.96875 "/></g></g></g><g fill="#000000" fill-opacity="1"><g transform="translate(76.400405, 127.733158)"><g><path d="M 4.5625 -26.875 C 5.132812 -26.875 5.632812 -26.664062 6.0625 -26.25 C 6.5 -25.832031 6.71875 -25.320312 6.71875 -24.71875 C 6.71875 -24.082031 6.515625 -23.5625 6.109375 -23.15625 C 5.703125 -22.75 5.1875 -22.546875 4.5625 -22.546875 C 3.925781 -22.546875 3.40625 -22.75 3 -23.15625 C 2.59375 -23.5625 2.390625 -24.082031 2.390625 -24.71875 C 2.390625 -25.320312 2.601562 -25.832031 3.03125 -26.25 C 3.46875 -26.664062 3.976562 -26.875 4.5625 -26.875 Z M 6.03125 -17.765625 L 6.03125 0 L 3.078125 0 L 3.078125 -17.765625 Z M 6.03125 -17.765625 "/></g></g></g><g fill="#000000" fill-opacity="1"><g transform="translate(85.509747, 127.733158)"><g><path d="M 11.203125 -18.21875 C 12.566406 -18.21875 13.820312 -17.898438 14.96875 -17.265625 C 16.125 -16.640625 16.96875 -15.796875 17.5 -14.734375 L 17.578125 -14.734375 L 17.578125 -17.765625 L 20.546875 -17.765625 L 20.546875 -0.609375 C 20.546875 2.429688 19.734375 4.796875 18.109375 6.484375 C 16.492188 8.179688 14.078125 9.054688 10.859375 9.109375 C 9.109375 9.109375 7.523438 8.851562 6.109375 8.34375 C 4.691406 7.84375 3.363281 6.972656 2.125 5.734375 L 4.25 3.296875 C 6.144531 5.347656 8.347656 6.375 10.859375 6.375 C 15.335938 6.375 17.578125 3.992188 17.578125 -0.765625 L 17.578125 -3.078125 L 17.5 -3.078125 C 16.84375 -2.015625 15.929688 -1.195312 14.765625 -0.625 C 13.597656 -0.0507812 12.410156 0.234375 11.203125 0.234375 C 8.460938 0.234375 6.21875 -0.617188 4.46875 -2.328125 C 2.726562 -4.035156 1.832031 -6.222656 1.78125 -8.890625 C 1.78125 -11.742188 2.640625 -14.003906 4.359375 -15.671875 C 6.085938 -17.347656 8.367188 -18.195312 11.203125 -18.21875 Z M 4.96875 -8.890625 C 4.96875 -7.117188 5.578125 -5.617188 6.796875 -4.390625 C 8.015625 -3.160156 9.492188 -2.53125 11.234375 -2.5 C 13.160156 -2.5 14.695312 -3.117188 15.84375 -4.359375 C 17 -5.609375 17.578125 -7.140625 17.578125 -8.953125 C 17.578125 -10.910156 16.988281 -12.484375 15.8125 -13.671875 C 14.632812 -14.859375 13.097656 -15.460938 11.203125 -15.484375 C 9.398438 -15.484375 7.910156 -14.847656 6.734375 -13.578125 C 5.554688 -12.316406 4.96875 -10.753906 4.96875 -8.890625 Z M 4.96875 -8.890625 "/></g></g></g><g fill="#000000" fill-opacity="1"><g transform="translate(108.700628, 127.733158)"><g><path d="M 4.5625 -26.875 C 5.132812 -26.875 5.632812 -26.664062 6.0625 -26.25 C 6.5 -25.832031 6.71875 -25.320312 6.71875 -24.71875 C 6.71875 -24.082031 6.515625 -23.5625 6.109375 -23.15625 C 5.703125 -22.75 5.1875 -22.546875 4.5625 -22.546875 C 3.925781 -22.546875 3.40625 -22.75 3 -23.15625 C 2.59375 -23.5625 2.390625 -24.082031 2.390625 -24.71875 C 2.390625 -25.320312 2.601562 -25.832031 3.03125 -26.25 C 3.46875 -26.664062 3.976562 -26.875 4.5625 -26.875 Z M 6.03125 -17.765625 L 6.03125 0 L 3.078125 0 L 3.078125 -17.765625 Z M 6.03125 -17.765625 "/></g></g></g><g fill="#000000" fill-opacity="1"><g transform="translate(117.80997, 127.733158)"><g><path d="M 7.296875 -22.8125 L 7.296875 -17.765625 L 12.53125 -17.765625 L 12.53125 -15.265625 L 7.296875 -15.265625 L 7.296875 -5.765625 C 7.296875 -4.347656 7.519531 -3.410156 7.96875 -2.953125 C 8.425781 -2.503906 9.085938 -2.28125 9.953125 -2.28125 C 10.929688 -2.28125 11.800781 -2.484375 12.5625 -2.890625 L 12.6875 -0.1875 C 11.664062 0.238281 10.507812 0.453125 9.21875 0.453125 C 7.40625 0.453125 6.132812 0.00390625 5.40625 -0.890625 C 4.6875 -1.785156 4.328125 -3.257812 4.328125 -5.3125 L 4.328125 -15.265625 L 0.453125 -15.265625 L 0.453125 -17.765625 L 4.328125 -17.765625 L 4.328125 -22.8125 Z M 7.296875 -22.8125 "/></g></g></g><g fill="#000000" fill-opacity="1"><g transform="translate(131.170354, 127.733158)"><g><path d="M 9.640625 -18.21875 C 12.222656 -18.21875 14.101562 -17.609375 15.28125 -16.390625 C 16.457031 -15.179688 17.054688 -13.347656 17.078125 -10.890625 L 17.078125 -2.921875 C 17.078125 -2.160156 17.171875 -1.1875 17.359375 0 L 14.5 0 C 14.375 -0.226562 14.3125 -1.113281 14.3125 -2.65625 L 14.234375 -2.65625 C 12.890625 -0.632812 10.941406 0.398438 8.390625 0.453125 C 6.441406 0.453125 4.851562 -0.03125 3.625 -1 C 2.394531 -1.976562 1.78125 -3.253906 1.78125 -4.828125 C 1.78125 -6.972656 2.664062 -8.546875 4.4375 -9.546875 C 6.207031 -10.546875 8.976562 -11.046875 12.75 -11.046875 L 14.125 -11.046875 L 14.125 -11.546875 C 14.125 -14.128906 12.65625 -15.441406 9.71875 -15.484375 C 7.59375 -15.484375 5.832031 -14.84375 4.4375 -13.5625 L 2.578125 -15.484375 C 4.398438 -17.265625 6.753906 -18.175781 9.640625 -18.21875 Z M 4.96875 -5.125 C 4.96875 -3.125 6.273438 -2.097656 8.890625 -2.046875 C 10.429688 -2.046875 11.6875 -2.539062 12.65625 -3.53125 C 13.632812 -4.519531 14.125 -5.960938 14.125 -7.859375 L 14.125 -8.546875 L 10.859375 -8.546875 C 9.109375 -8.546875 7.695312 -8.265625 6.625 -7.703125 C 5.550781 -7.148438 5 -6.289062 4.96875 -5.125 Z M 4.96875 -5.125 "/></g></g></g><g fill="#000000" fill-opacity="1"><g transform="translate(150.86932, 127.733158)"><g><path d="M 6.03125 -28.703125 L 6.03125 0 L 3.078125 0 L 3.078125 -28.703125 Z M 6.03125 -28.703125 "/></g></g></g><g fill="#000000" fill-opacity="1"><g transform="translate(159.978662, 127.733158)"><g/></g></g><g fill="#000000" fill-opacity="1"><g transform="translate(170.530314, 127.733158)"><g><path d="M 11.203125 -27.5625 C 14.460938 -27.5625 16.96875 -26.507812 18.71875 -24.40625 L 16.09375 -22.140625 C 15.082031 -23.734375 13.453125 -24.554688 11.203125 -24.609375 C 9.503906 -24.609375 8.125 -24.203125 7.0625 -23.390625 C 6 -22.578125 5.46875 -21.472656 5.46875 -20.078125 C 5.46875 -18.867188 5.867188 -17.910156 6.671875 -17.203125 C 7.484375 -16.492188 9.003906 -15.796875 11.234375 -15.109375 C 14.117188 -14.273438 16.160156 -13.253906 17.359375 -12.046875 C 18.566406 -10.847656 19.171875 -9.222656 19.171875 -7.171875 C 19.171875 -4.796875 18.285156 -2.898438 16.515625 -1.484375 C 14.742188 -0.0664062 12.476562 0.65625 9.71875 0.6875 C 7.875 0.6875 6.226562 0.359375 4.78125 -0.296875 C 3.34375 -0.960938 2.226562 -1.875 1.4375 -3.03125 L 4.171875 -5.28125 C 4.753906 -4.3125 5.5625 -3.566406 6.59375 -3.046875 C 7.632812 -2.535156 8.738281 -2.28125 9.90625 -2.28125 C 11.5 -2.28125 12.867188 -2.726562 14.015625 -3.625 C 15.171875 -4.519531 15.75 -5.628906 15.75 -6.953125 C 15.75 -8.140625 15.414062 -9.070312 14.75 -9.75 C 14.082031 -10.4375 12.972656 -11.019531 11.421875 -11.5 L 8.359375 -12.53125 C 6.046875 -13.3125 4.414062 -14.289062 3.46875 -15.46875 C 2.519531 -16.644531 2.046875 -18.09375 2.046875 -19.8125 C 2.046875 -22.09375 2.894531 -23.945312 4.59375 -25.375 C 6.289062 -26.8125 8.492188 -27.539062 11.203125 -27.5625 Z M 11.203125 -27.5625 "/></g></g></g><g fill="#000000" fill-opacity="1"><g transform="translate(191.633637, 127.733158)"><g><path d="M 11.28125 -18.21875 C 14.039062 -18.21875 16.289062 -17.363281 18.03125 -15.65625 C 19.78125 -13.945312 20.691406 -11.691406 20.765625 -8.890625 C 20.765625 -6.179688 19.878906 -3.957031 18.109375 -2.21875 C 16.335938 -0.488281 14.0625 0.398438 11.28125 0.453125 C 8.488281 0.453125 6.21875 -0.425781 4.46875 -2.1875 C 2.726562 -3.945312 1.832031 -6.179688 1.78125 -8.890625 C 1.78125 -11.617188 2.664062 -13.847656 4.4375 -15.578125 C 6.207031 -17.316406 8.488281 -18.195312 11.28125 -18.21875 Z M 4.96875 -8.890625 C 4.96875 -6.941406 5.554688 -5.363281 6.734375 -4.15625 C 7.910156 -2.957031 9.425781 -2.332031 11.28125 -2.28125 C 13.125 -2.28125 14.628906 -2.894531 15.796875 -4.125 C 16.960938 -5.351562 17.554688 -6.941406 17.578125 -8.890625 C 17.578125 -10.804688 16.988281 -12.382812 15.8125 -13.625 C 14.632812 -14.863281 13.109375 -15.484375 11.234375 -15.484375 C 9.410156 -15.484375 7.914062 -14.867188 6.75 -13.640625 C 5.59375 -12.421875 5 -10.835938 4.96875 -8.890625 Z M 4.96875 -8.890625 "/></g></g></g><g fill="#000000" fill-opacity="1"><g transform="translate(214.17927, 127.733158)"><g><path d="M 6.03125 -28.703125 L 6.03125 0 L 3.078125 0 L 3.078125 -28.703125 Z M 6.03125 -28.703125 "/></g></g></g><g fill="#000000" fill-opacity="1"><g transform="translate(223.288612, 127.733158)"><g><path d="M 5.765625 -17.765625 L 5.765625 -6.984375 C 5.765625 -5.617188 6.085938 -4.5 6.734375 -3.625 C 7.378906 -2.75 8.410156 -2.300781 9.828125 -2.28125 C 11.648438 -2.28125 13.023438 -2.882812 13.953125 -4.09375 C 14.878906 -5.3125 15.34375 -6.929688 15.34375 -8.953125 L 15.34375 -17.765625 L 18.296875 -17.765625 L 18.296875 -3.953125 C 18.328125 -3.242188 18.378906 -1.925781 18.453125 0 L 15.640625 0 C 15.617188 -1.21875 15.59375 -2.191406 15.5625 -2.921875 L 15.484375 -2.921875 C 15.035156 -1.929688 14.269531 -1.117188 13.1875 -0.484375 C 12.113281 0.140625 10.894531 0.453125 9.53125 0.453125 C 7.351562 0.429688 5.6875 -0.21875 4.53125 -1.5 C 3.382812 -2.78125 2.8125 -4.492188 2.8125 -6.640625 L 2.8125 -17.765625 Z M 5.765625 -17.765625 "/></g></g></g><g fill="#000000" fill-opacity="1"><g transform="translate(244.391935, 127.733158)"><g><path d="M 7.296875 -22.8125 L 7.296875 -17.765625 L 12.53125 -17.765625 L 12.53125 -15.265625 L 7.296875 -15.265625 L 7.296875 -5.765625 C 7.296875 -4.347656 7.519531 -3.410156 7.96875 -2.953125 C 8.425781 -2.503906 9.085938 -2.28125 9.953125 -2.28125 C 10.929688 -2.28125 11.800781 -2.484375 12.5625 -2.890625 L 12.6875 -0.1875 C 11.664062 0.238281 10.507812 0.453125 9.21875 0.453125 C 7.40625 0.453125 6.132812 0.00390625 5.40625 -0.890625 C 4.6875 -1.785156 4.328125 -3.257812 4.328125 -5.3125 L 4.328125 -15.265625 L 0.453125 -15.265625 L 0.453125 -17.765625 L 4.328125 -17.765625 L 4.328125 -22.8125 Z M 7.296875 -22.8125 "/></g></g></g><g fill="#000000" fill-opacity="1"><g transform="translate(257.752319, 127.733158)"><g><path d="M 4.5625 -26.875 C 5.132812 -26.875 5.632812 -26.664062 6.0625 -26.25 C 6.5 -25.832031 6.71875 -25.320312 6.71875 -24.71875 C 6.71875 -24.082031 6.515625 -23.5625 6.109375 -23.15625 C 5.703125 -22.75 5.1875 -22.546875 4.5625 -22.546875 C 3.925781 -22.546875 3.40625 -22.75 3 -23.15625 C 2.59375 -23.5625 2.390625 -24.082031 2.390625 -24.71875 C 2.390625 -25.320312 2.601562 -25.832031 3.03125 -26.25 C 3.46875 -26.664062 3.976562 -26.875 4.5625 -26.875 Z M 6.03125 -17.765625 L 6.03125 0 L 3.078125 0 L 3.078125 -17.765625 Z M 6.03125 -17.765625 "/></g></g></g><g fill="#000000" fill-opacity="1"><g transform="translate(266.861661, 127.733158)"><g><path d="M 11.28125 -18.21875 C 14.039062 -18.21875 16.289062 -17.363281 18.03125 -15.65625 C 19.78125 -13.945312 20.691406 -11.691406 20.765625 -8.890625 C 20.765625 -6.179688 19.878906 -3.957031 18.109375 -2.21875 C 16.335938 -0.488281 14.0625 0.398438 11.28125 0.453125 C 8.488281 0.453125 6.21875 -0.425781 4.46875 -2.1875 C 2.726562 -3.945312 1.832031 -6.179688 1.78125 -8.890625 C 1.78125 -11.617188 2.664062 -13.847656 4.4375 -15.578125 C 6.207031 -17.316406 8.488281 -18.195312 11.28125 -18.21875 Z M 4.96875 -8.890625 C 4.96875 -6.941406 5.554688 -5.363281 6.734375 -4.15625 C 7.910156 -2.957031 9.425781 -2.332031 11.28125 -2.28125 C 13.125 -2.28125 14.628906 -2.894531 15.796875 -4.125 C 16.960938 -5.351562 17.554688 -6.941406 17.578125 -8.890625 C 17.578125 -10.804688 16.988281 -12.382812 15.8125 -13.625 C 14.632812 -14.863281 13.109375 -15.484375 11.234375 -15.484375 C 9.410156 -15.484375 7.914062 -14.867188 6.75 -13.640625 C 5.59375 -12.421875 5 -10.835938 4.96875 -8.890625 Z M 4.96875 -8.890625 "/></g></g></g><g fill="#000000" fill-opacity="1"><g transform="translate(289.407294, 127.733158)"><g><path d="M 11.546875 -18.21875 C 13.773438 -18.21875 15.457031 -17.570312 16.59375 -16.28125 C 17.726562 -15 18.296875 -13.28125 18.296875 -11.125 L 18.296875 0 L 15.34375 0 L 15.34375 -10.78125 C 15.34375 -12.144531 15.023438 -13.265625 14.390625 -14.140625 C 13.753906 -15.015625 12.71875 -15.460938 11.28125 -15.484375 C 9.457031 -15.484375 8.082031 -14.882812 7.15625 -13.6875 C 6.226562 -12.488281 5.765625 -10.820312 5.765625 -8.6875 L 5.765625 0 L 2.8125 0 L 2.8125 -13.828125 C 2.8125 -13.953125 2.757812 -15.265625 2.65625 -17.765625 L 5.46875 -17.765625 C 5.519531 -15.992188 5.546875 -15.019531 5.546875 -14.84375 L 5.625 -14.84375 C 6.101562 -15.851562 6.878906 -16.664062 7.953125 -17.28125 C 9.023438 -17.90625 10.222656 -18.21875 11.546875 -18.21875 Z M 11.546875 -18.21875 "/></g></g></g><g fill="#000000" fill-opacity="1"><g transform="translate(310.510617, 127.733158)"><g><path d="M 8.234375 -18.21875 C 11.066406 -18.195312 13.082031 -17.125 14.28125 -15 L 11.8125 -13.359375 C 10.945312 -14.773438 9.691406 -15.484375 8.046875 -15.484375 C 7.054688 -15.484375 6.226562 -15.253906 5.5625 -14.796875 C 4.894531 -14.347656 4.5625 -13.753906 4.5625 -13.015625 C 4.5625 -11.828125 6.039062 -10.96875 9 -10.4375 C 11.125 -10.0625 12.628906 -9.441406 13.515625 -8.578125 C 14.398438 -7.722656 14.84375 -6.570312 14.84375 -5.125 C 14.84375 -3.375 14.195312 -2.003906 12.90625 -1.015625 C 11.613281 -0.0351562 9.894531 0.453125 7.75 0.453125 C 6.070312 0.453125 4.695312 0.1875 3.625 -0.34375 C 2.550781 -0.875 1.617188 -1.707031 0.828125 -2.84375 L 3.1875 -4.671875 C 3.925781 -3.785156 4.648438 -3.164062 5.359375 -2.8125 C 6.066406 -2.457031 6.863281 -2.28125 7.75 -2.28125 C 8.882812 -2.28125 9.816406 -2.523438 10.546875 -3.015625 C 11.285156 -3.515625 11.65625 -4.179688 11.65625 -5.015625 C 11.65625 -5.867188 11.269531 -6.507812 10.5 -6.9375 C 9.726562 -7.375 8.441406 -7.769531 6.640625 -8.125 C 4.867188 -8.5 3.582031 -9.066406 2.78125 -9.828125 C 1.988281 -10.585938 1.59375 -11.640625 1.59375 -12.984375 C 1.59375 -14.472656 2.207031 -15.710938 3.4375 -16.703125 C 4.664062 -17.691406 6.265625 -18.195312 8.234375 -18.21875 Z M 8.234375 -18.21875 "/></g></g></g></svg>